<?xml version="1.0" encoding="UTF-8"?>
<svg width="32" height="32" fill="none" version="1.1" viewBox="0 0 32 32" xmlns="http://www.w3.org/2000/svg"><g clip-path="url(#a)"><path d="m10.333 32c2.944 0 5.3334-2.3893 5.3334-5.3333v-5.3333h-5.3334c-2.944 0-5.3333 2.3893-5.3333 5.3333s2.3893 5.3333 5.3333 5.3333z" fill="#0ACF83"/><path d="m5 16c0-2.944 2.3893-5.3334 5.3333-5.3334h5.3334v10.667h-5.3334c-2.944 0-5.3333-2.3893-5.3333-5.3333z" fill="#A259FF"/><path d="M5 5.33333C5 2.38933 7.38933 0 10.3333 0H15.6667V10.6667H10.3333C7.38933 10.6667 5 8.27733 5 5.33333Z" fill="#F24E1E"/><path d="m15.667 0h5.3333c2.944 0 5.3334 2.3893 5.3334 5.3333s-2.3894 5.3334-5.3334 5.3334h-5.3333v-10.667z" fill="#FF7262"/><path d="m26.333 16c0 2.944-2.3894 5.3333-5.3334 5.3333s-5.3333-2.3893-5.3333-5.3333 2.3893-5.3334 5.3333-5.3334 5.3334 2.3894 5.3334 5.3334z" fill="#1ABCFE"/></g><defs><clipPath id="a"><rect transform="translate(5)" width="21.333" height="32" fill="#fff"/></clipPath></defs></svg>
