<?xml version="1.0" encoding="UTF-8"?>
<svg width="32" height="32" fill="none" version="1.1" viewBox="0 0 32 32" xmlns="http://www.w3.org/2000/svg"><path d="m31.396 14.574-13.972-13.97c-0.1913-0.1914-0.4185-0.34323-0.6685-0.44681-0.25-0.10359-0.5179-0.15691-0.7885-0.15691s-0.5386 0.053317-0.7886 0.15691c-0.25 0.10359-0.4771 0.25542-0.6684 0.44681l-2.9 2.9 3.68 3.68c0.434-0.14818 0.9009-0.17136 1.3475-0.0669 0.4465 0.10447 0.8547 0.33236 1.1779 0.65769 0.3233 0.32533 0.5486 0.73497 0.6501 1.1822 0.1016 0.44721 0.0755 0.91398-0.0755 1.3471l3.546 3.548c0.5246-0.1848 1.0965-0.1853 1.6215-0.0016s0.9717 0.5407 1.2668 1.0122c0.295 0.4715 0.4206 1.0294 0.3562 1.5818-0.0644 0.5525-0.315 1.0666-0.7105 1.4576-0.4004 0.4029-0.9283 0.6542-1.4935 0.7111s-1.1326-0.0842-1.6053-0.3991c-0.4727-0.315-0.8214-0.7844-0.9865-1.3279s-0.1364-1.1275 0.0813-1.6521l-3.306-3.308v8.706c0.5025 0.2487 0.9046 0.6622 1.1392 1.1714 0.2346 0.5093 0.2876 1.0836 0.1502 1.6272-0.1375 0.5436-0.4571 1.0236-0.9056 1.3602-0.4485 0.3365-0.9988 0.5091-1.5591 0.4891-0.5604-0.02-1.0969-0.2315-1.5203-0.5991-0.4233-0.3677-0.7079-0.8693-0.8062-1.4213-0.0983-0.5521-0.0045-1.1211 0.2659-1.6123 0.2703-0.4913 0.7009-0.875 1.2199-1.0872v-8.786c-0.2994-0.1227-0.5716-0.3035-0.8009-0.5318-0.2292-0.2284-0.411-0.4999-0.5348-0.7989-0.1238-0.2989-0.1872-0.61944-0.1866-0.94302s0.0653-0.64384 0.1903-0.94232l-3.626-3.628-9.58 9.58c-0.1914 0.1913-0.34323 0.4184-0.44681 0.6684-0.10359 0.25-0.15691 0.518-0.15691 0.7886s0.053317 0.5385 0.15691 0.7885c0.10359 0.25 0.25542 0.4772 0.44681 0.6685l13.972 13.972c0.1913 0.1914 0.4184 0.3432 0.6684 0.4468s0.518 0.1569 0.7886 0.1569 0.5385-0.0533 0.7885-0.1569 0.4772-0.2554 0.6685-0.4468l13.906-13.906c0.386-0.3867 0.6029-0.9107 0.6029-1.457 0-0.5464-0.2169-1.0704-0.6029-1.457" fill="#e84e31"/></svg>
