<?xml version="1.0" encoding="UTF-8"?>
<svg width="32" height="32" fill="none" version="1.1" viewBox="0 0 32 32" xmlns="http://www.w3.org/2000/svg"><path d="m18.953 3.6626 6.5718 3.7944c0.1897-0.20075 0.4074-0.37305 0.6464-0.51156 1.3629-0.78355 3.1014-0.31833 3.893 1.0447 0.7836 1.363 0.3184 3.1013-1.0446 3.893-0.2372 0.1366-0.4929 0.2384-0.759 0.3022v7.5917c0.2632 0.0639 0.5161 0.165 0.7509 0.3002 1.3711 0.7917 1.8363 2.5301 1.0446 3.8931-0.7835 1.3629-2.5301 1.8281-3.8931 1.0447-0.264-0.1515-0.5019-0.3446-0.7044-0.5719l-6.5318 3.7711c0.0956 0.2897 0.1442 0.5928 0.1439 0.8978 0 1.567-1.2731 2.8484-2.8484 2.8484-1.5752 0-2.8483-1.2733-2.8483-2.8484 0-0.28 0.0402-0.5504 0.1152-0.8059l-6.57-3.7933c-0.18765 0.1967-0.40232 0.3658-0.63756 0.5022-1.3711 0.7834-3.1096 0.3182-3.8931-1.0447-0.78344-1.363-0.31822-3.1014 1.0447-3.8931 0.23479-0.1352 0.48762-0.2363 0.75089-0.3003v-7.5916c-0.26618-0.0638-0.5218-0.1656-0.759-0.3022-1.363-0.7834-1.8282-2.53-1.0447-3.893 0.78356-1.363 2.53-1.8282 3.893-1.0447 0.23768 0.13777 0.45433 0.30897 0.64333 0.50834l6.5737-3.7954c-0.0775-0.26301-0.1168-0.53581-0.1165-0.81 0-1.575 1.2731-2.8483 2.8483-2.8483 1.5753 0 2.8484 1.2732 2.8484 2.8483 0 0.28311-0.0411 0.55634-0.1177 0.81423zm-0.6847 1.1691 6.5875 3.8033c-0.1049 0.36667-0.135 0.7507-0.0885 1.1292 0.0465 0.37857 0.1687 0.74387 0.3593 1.0742 0.401 0.6976 1.0542 1.16 1.7792 1.3403v7.6011c-0.037 9e-3 -0.0738 0.0189-0.1103 0.0293l-8.6037-14.901c0.026-0.02489 0.0515-0.05022 0.0765-0.076zm-4.0136 0.07777-8.6036 14.901c-0.0372-0.0108-0.07462-0.0208-0.11222-0.03v-7.6019c0.72499-0.1803 1.3782-0.6427 1.7792-1.3403 0.19093-0.331 0.31321-0.697 0.35954-1.0763 0.04634-0.3793 0.01577-0.76405-0.08988-1.1313l6.5855-3.8022c0.0266 0.02744 0.0537 0.05444 0.0814 0.08077zm2.7635 0.675 8.6016 14.898c-0.197 0.188-0.3659 0.4035-0.5015 0.6397-0.1351 0.2348-0.2362 0.4876-0.3002 0.7509h-17.191c-0.06403-0.2633-0.16519-0.5161-0.30044-0.7509-0.136-0.2346-0.30457-0.4487-0.50067-0.636l8.6032-14.901c0.2579 0.07427 0.525 0.11182 0.7934 0.11156 0.2764 0 0.5434-0.03911 0.7959-0.11223zm1.3106 21.609 6.5447-3.7787c-0.0197-0.0616-0.0372-0.124-0.0526-0.1868h-17.198c-0.00913 0.0369-0.01898 0.0736-0.02956 0.1102l6.5766 3.7972c0.2656-0.2762 0.5843-0.4957 0.937-0.6455 0.3527-0.1497 0.732-0.2265 1.1151-0.2258 0.3966-7e-4 0.7889 0.0816 1.1517 0.2417s0.688 0.3943 0.9548 0.6877z" clip-rule="evenodd" fill="#e535ab" fill-rule="evenodd"/></svg>
