<?xml version="1.0" encoding="UTF-8"?>
<svg width="32" height="32" version="1.1" viewBox="0 0 32 32" xmlns="http://www.w3.org/2000/svg"><path d="M0 0H32V32H0V0Z" fill="#F7DF1E"/><path d="m8.414 26.742 2.4488-1.482c0.4725 0.8377 0.9022 1.5464 1.9331 1.5464 0.9881 0 1.6112-0.3865 1.6112-1.89v-10.225h3.0071v10.267c0 3.1146-1.8257 4.5324-4.4894 4.5324-2.4057 0-3.802-1.2459-4.5109-2.7495l1.2e-4 2e-4zm10.634-0.3222 2.4485-1.4176c0.6446 1.0526 1.4824 1.8258 2.9644 1.8258 1.2461 0 2.0406-0.623 2.0406-1.4822 0-1.031-0.8162-1.3963-2.191-1.9975l-0.7516-0.3225c-2.1696-0.9234-3.6088-2.0834-3.6088-4.5321 0-2.2555 1.7184-3.974 4.4035-3.974 1.9118 0 3.2865 0.666 4.2745 2.4058l-2.3415 1.5038c-0.5156-0.9236-1.0738-1.2888-1.9331-1.2888-0.8807 0-1.4392 0.5585-1.4392 1.2888 0 0.9021 0.5585 1.2675 1.8472 1.826l0.7518 0.3221c2.5562 1.0956 3.9953 2.2125 3.9953 4.7255 0 2.7068-2.1265 4.1888-4.9833 4.1888-2.7924 0-4.5968-1.3318-5.4774-3.0718" fill="#1C1B1F"/></svg>
