<?xml version="1.0" encoding="UTF-8"?>
<svg width="32" height="32" fill="none" version="1.1" viewBox="0 0 32 32" xmlns="http://www.w3.org/2000/svg"><path d="m26.31 11.228c-0.3406-0.1169-0.684-0.2251-1.03-0.3246 0.0581-0.2375 0.1116-0.4722 0.1591-0.7027 0.7798-3.7851 0.27-6.8345-1.4711-7.8385-1.6694-0.9625-4.3995 0.04112-7.1568 2.4408-0.2717 0.23692-0.5374 0.48066-0.7969 0.731-0.1736-0.16647-0.3504-0.3297-0.5301-0.48963-2.8897-2.5658-5.7862-3.6471-7.5255-2.6402-1.6679 0.9655-2.1618 3.8321-1.4598 7.4194 0.06985 0.35532 0.14871 0.70872 0.23651 1.06-0.41 0.1165-0.80563 0.2405-1.1843 0.3725-3.388 1.1812-5.5516 3.0324-5.5516 4.9525 0 1.9831 2.3228 3.9722 5.8515 5.1784 0.28608 0.0973 0.57455 0.1876 0.86513 0.2706-0.09438 0.3783-0.17816 0.7592-0.25126 1.1422-0.66925 3.525-0.14662 6.3239 1.5168 7.2833 1.718 0.9907 4.6015-0.0275 7.4091-2.4819 0.2277-0.1995 0.4504-0.4047 0.6678-0.6154 0.2809 0.2711 0.5694 0.5343 0.865 0.7893 2.7197 2.3402 5.4058 3.2852 7.0675 2.3232 1.7164-0.9936 2.2743-4.0003 1.55-7.6585-0.0571-0.2866-0.121-0.5717-0.1919-0.8552 0.2025-0.06 0.4013-0.1218 0.595-0.186 3.6685-1.2154 6.0554-3.1804 6.0554-5.19 0-1.9271-2.2335-3.7908-5.6896-4.9805zm-0.7957 8.873c-0.1749 0.0579-0.3545 0.1137-0.5375 0.1681-0.405-1.2821-0.9515-2.6454-1.6203-4.054 0.6382-1.375 1.1637-2.7209 1.5573-3.9946 0.3274 0.0947 0.645 0.1946 0.9513 0.3 2.9612 1.0195 4.7675 2.5266 4.7675 3.688 0 1.237-1.9508 2.8429-5.1183 3.8925zm-1.3142 2.6042c0.3203 1.6175 0.3659 3.08 0.1537 4.2234-0.1905 1.0274-0.5737 1.7123-1.0477 1.9866-1.0084 0.5838-3.165-0.175-5.4909-2.1765-0.2749-0.237-0.5432-0.4817-0.8046-0.7337 0.9018-0.9861 1.8029-2.1325 2.6824-3.4058 1.547-0.1372 3.0085-0.3617 4.3339-0.6681 0.0638 0.2566 0.1216 0.5148 0.1732 0.7741zm-13.291 6.1092c-0.98525 0.3478-1.77 0.3578-2.2444 0.0843-1.0094-0.5821-1.429-2.8295-0.85662-5.844 0.06804-0.3562 0.14594-0.7104 0.23362-1.0623 1.3108 0.29 2.7617 0.4985 4.3123 0.6242 0.8855 1.2459 1.8126 2.391 2.747 3.3938-0.1986 0.1921-0.4019 0.3793-0.6097 0.5615-1.2416 1.0852-2.4857 1.8552-3.5822 2.2425zm-4.6158-8.721c-1.5604-0.5334-2.849-1.2265-3.7322-1.9829-0.79375-0.6796-1.1944-1.3545-1.1944-1.902 0-1.1653 1.7371-2.6515 4.6345-3.6616 0.35162-0.1225 0.71962-0.2382 1.1015-0.3467 0.40049 1.3025 0.92575 2.6644 1.5596 4.0415-0.64212 1.3975-1.1749 2.7812-1.5792 4.099-0.26524-0.0759-0.52857-0.1584-0.78975-0.2473zm1.5472-10.533c-0.60138-3.0734-0.202-5.3918 0.80312-5.9736 1.0705-0.61975 3.4378 0.26387 5.9329 2.4794 0.1627 0.1448 0.3228 0.29253 0.4801 0.44313-0.9297 0.99837-1.8484 2.135-2.726 3.3735-1.505 0.13947-2.9456 0.36347-4.2701 0.66367-0.0816-0.3268-0.15496-0.6555-0.22-0.98592zm13.803 3.4086c-0.3129-0.5404-0.6373-1.074-0.9732-1.6004 1.021 0.1291 1.9993 0.3005 2.9179 0.51-0.2757 0.884-0.6195 1.8081-1.0241 2.7556-0.2958-0.5611-0.6027-1.1163-0.9206-1.6652zm-5.629-5.4827c0.6305 0.68312 1.262 1.4458 1.8831 2.2732-1.26-0.05951-2.5221-0.05976-3.7821-7.5e-4 0.6217-0.81988 1.2586-1.5815 1.899-2.2725zm-5.6651 5.492c-0.314 0.5445-0.61521 1.0962-0.90343 1.6548-0.398-0.9441-0.73862-1.8725-1.0167-2.769 0.913-0.2043 1.8867-0.3713 2.9012-0.498-0.3396 0.5296-0.6667 1.0671-0.981 1.6121zm1.0101 8.169c-1.0481-0.117-2.0364-0.2753-2.9492-0.4741 0.2825-0.9125 0.63062-1.8606 1.0372-2.825 0.28935 0.559 0.5918 1.111 0.9071 1.6558 0.3243 0.56 0.66 1.1085 1.0048 1.6433zm4.6927 3.8788c-0.648-0.699-1.2942-1.4724-1.9253-2.3041 0.6127 0.024 1.2373 0.0362 1.8722 0.0362 0.6523 0 1.297-0.0146 1.9316-0.0429-0.6231 0.8468-1.2522 1.6213-1.8785 2.3108zm6.5248-7.2271c0.4277 0.975 0.7882 1.9181 1.0745 2.815-0.9278 0.2117-1.9295 0.3822-2.985 0.5088 0.3382-0.5362 0.6657-1.079 0.9823-1.6282 0.322-0.5583 0.6314-1.1236 0.9282-1.6956zm-2.1123 1.0126c-0.4847 0.842-0.9967 1.6681-1.5351 2.4769-0.9753 0.069-1.9528 0.1033-2.9305 0.1028-0.9959 0-1.9645-0.031-2.8973-0.0915-0.5524-0.8069-1.0742-1.6344-1.5641-2.4807h1e-4c-0.4876-0.8419-0.943-1.702-1.3653-2.5784 0.4212-0.8766 0.8753-1.7371 1.3612-2.5796l-1e-4 1e-4c0.4857-0.8427 1.0033-1.6667 1.5516-2.4701 0.9517-0.072 1.9275-0.1095 2.9138-0.1095h1e-4c0.9907 0 1.9679 0.0379 2.9193 0.1104 0.5427 0.8022 1.057 1.6233 1.5418 2.4618 0.4876 0.8407 0.9477 1.697 1.3795 2.5675-0.4274 0.8795-0.886 1.7435-1.375 2.5903zm2.82-15.266c1.0715 0.618 1.4883 3.1101 0.815 6.3782-0.043 0.20847-0.0912 0.42087-0.1437 0.63627-1.3278-0.3065-2.7694-0.5344-4.2788-0.67602-0.8792-1.2521-1.7903-2.3905-2.705-3.376 0.2397-0.23106 0.4851-0.45613 0.736-0.675 2.3625-2.0559 4.5705-2.8676 5.5765-2.2875zm-7.2856 9.8045c1.5781 0 2.8575 1.2794 2.8575 2.8575s-1.2794 2.8575-2.8575 2.8575-2.8575-1.2794-2.8575-2.8575 1.2794-2.8575 2.8575-2.8575z" fill="#00d8ff"/></svg>
