<?xml version="1.0" encoding="UTF-8"?>
<svg width="32" height="32" fill="none" version="1.1" viewBox="0 0 32 32" xmlns="http://www.w3.org/2000/svg"><path d="m27.535 17.814c-1.1132 0.0058-2.0809 0.2739-2.891 0.6703-0.2974-0.5888-0.5946-1.1133-0.647-1.498-0.0584-0.4488-0.1282-0.7228-0.0584-1.259 0.07-0.5363 0.3848-1.2999 0.3789-1.3582-0.0057-0.0582-0.07-0.3322-0.7111-0.338s-1.1949 0.1224-1.259 0.2914-0.1865 0.5538-0.2681 0.95c-0.1108 0.583-1.2823 2.6638-1.9525 3.7538-0.2158-0.4254-0.4023-0.7985-0.4432-1.0958-0.0582-0.4487-0.1282-0.7227-0.0582-1.259 0.07-0.5362 0.3847-1.2997 0.3789-1.3581-0.0059-0.0583-0.07-0.3323-0.7112-0.338-0.6412-0.0059-1.195 0.1224-1.259 0.2914-0.0641 0.1691-0.1341 0.5653-0.2681 0.9501-0.1341 0.3847-1.6904 3.8587-2.0984 4.7562-0.1649 0.3633-0.3378 0.7228-0.5187 1.0784 0 0-0.0059 0.0175-0.0234 0.0466-0.0568 0.1115-0.1151 0.2223-0.1748 0.3323v0.0057c-0.0875 0.1575-0.1807 0.3031-0.2273 0.3031-0.035 0-0.0992-0.4196 0.0116-0.9908 0.2331-1.2065 0.7869-3.0834 0.7811-3.1475 0-0.035 0.1049-0.3614-0.3614-0.5305-0.4547-0.169-0.6178 0.1107-0.6587 0.1107-0.0408 0-0.07 0.0992-0.07 0.0992s0.5072-2.11-0.9675-2.11c-0.9209 0-2.1916 1.0083-2.8211 1.9176-0.71564 0.3894-1.4306 0.7799-2.145 1.1716-0.34375 0.1924-0.69938 0.3848-1.0316 0.5654-0.02338-0.0233-0.04663-0.0525-0.07-0.0758-1.7836-1.906-5.0826-3.2525-4.9428-5.8112 0.0525-0.9326 0.37301-3.3807 6.3359-6.3534 4.9077-2.419 8.8131-1.7488 9.4892-0.26237 0.9675 2.1217-2.0925 6.0619-7.1636 6.6331-1.9351 0.2157-2.9494-0.5304-3.2058-0.8102-0.26813-0.2915-0.309-0.309-0.40813-0.2506-0.16312 0.0875-0.05825 0.3498 0 0.5013 0.15163 0.3962 0.77526 1.0957 1.8303 1.4397 0.93263 0.303 3.2 0.4721 5.9453-0.5887 3.0718-1.1892 5.4733-4.494 4.7681-7.2626-0.7054-2.8095-5.3684-3.7362-9.7808-2.1684-2.6229 0.93275-5.4674 2.4015-7.5133 4.3134-2.4306 2.2731-2.8154 4.2491-2.658 5.0768 0.5655 2.9376 4.6165 4.8495 6.2369 6.2659-0.08162 0.0466-0.1575 0.0875-0.2215 0.1225-0.81025 0.4021-3.8995 2.0166-4.6689 3.7245-0.87425 1.9351 0.14 3.3225 0.81025 3.5088 2.0809 0.5771 4.22-0.4603 5.3683-2.1741 1.1482-1.7136 1.0084-3.9402 0.478-4.9602-0.00587-0.0117-0.01162-0.0234-0.02337-0.035 0.20987-0.1224 0.4255-0.2507 0.63537-0.373 0.38573-0.2281 0.77637-0.4477 1.1716-0.6588-0.19825 0.5421-0.344 1.1891-0.41388 2.1218-0.0875 1.0958 0.36125 2.518 0.95001 3.0775 0.2624 0.245 0.5712 0.2507 0.7695 0.2507 0.6877 0 0.9967-0.5712 1.3406-1.2474 0.4196-0.8276 0.7985-1.7893 0.7985-1.7893s-0.4721 2.5996 0.8103 2.5996c0.4662 0 0.9383-0.6063 1.1482-0.9151v0.0057s0.0116-0.0175 0.035-0.0582c0.0466-0.0758 0.0758-0.1225 0.0758-0.1225v-0.0115c0.1865-0.3265 0.6062-1.0668 1.2298-2.2967 0.8044-1.5853 1.5797-3.5671 1.5797-3.5671s0.07 0.4838 0.3088 1.2882c0.1401 0.4721 0.4313 0.9908 0.6646 1.4921-0.1865 0.2623-0.3032 0.408-0.3032 0.408l0.0059 0.0058c-0.1516 0.1982-0.3148 0.4138-0.4955 0.6238-0.6354 0.7576-1.393 1.6262-1.498 1.8767-0.1225 0.2973-0.0933 0.513 0.14 0.6879 0.169 0.1283 0.472 0.1456 0.781 0.1283 0.5712-0.0409 0.9734-0.1808 1.1715-0.2682 0.309-0.1107 0.6704-0.2798 1.0084-0.5305 0.6237-0.4605 1.0025-1.1191 0.9676-1.9875-0.0175-0.478-0.1749-0.956-0.3672-1.4048 0.0583-0.0815 0.1107-0.1631 0.1691-0.2448 0.985-1.4397 1.7486-3.0193 1.7486-3.0193s0.07 0.4837 0.3089 1.2882c0.1166 0.408 0.3556 0.851 0.5654 1.2823-0.9268 0.752-1.498 1.6262-1.702 2.1974-0.3672 1.0609-0.0817 1.5388 0.4605 1.6495 0.2447 0.0525 0.5945-0.0641 0.851-0.1748 0.3263-0.1049 0.7111-0.2855 1.0783-0.5538 0.6238-0.4604 1.224-1.1016 1.189-1.97-0.0175-0.3963-0.1223-0.787-0.2681-1.1658 0.7869-0.3263 1.8011-0.507 3.095-0.3555 2.7746 0.3263 3.3225 2.0574 3.2175 2.7862-0.1049 0.7285-0.6877 1.1249-0.88 1.2472-0.1925 0.1225-0.2565 0.1633-0.239 0.2507 0.0233 0.1282 0.1165 0.1225 0.2798 0.0991 0.2273-0.0408 1.4572-0.5888 1.5096-1.9294 0.0875-1.7136-1.5446-3.5846-4.4299-3.5671zm-21.403 7.216c-0.921 1.0025-2.2032 1.3814-2.757 1.0609-0.59451-0.344-0.36138-1.8245 0.76937-2.8853 0.68775-0.647 1.5738-1.2475 2.1625-1.6146 0.134-0.0816 0.33225-0.1981 0.57125-0.3439 0.04075-0.0234 0.06413-0.035 0.06413-0.035l0.13987-0.0875c0.41375 1.5155 0.0175 2.8504-0.95012 3.9054zm6.7032-4.5581c-0.3207 0.7811-0.9909 2.7803-1.3989 2.6696-0.3498-0.0933-0.5655-1.6088-0.07-3.1067 0.2506-0.752 0.781-1.6497 1.09-1.9993 0.5012-0.5596 1.055-0.7462 1.189-0.5187 0.1691 0.2972-0.612 2.4654-0.8101 2.9551zm5.5315 2.6462c-0.1341 0.07-0.2623 0.1166-0.3207 0.0816-0.0407-0.0233 0.0584-0.1166 0.0584-0.1166s0.6937-0.746 0.9675-1.0841c0.1575-0.1981 0.3439-0.4313 0.5422-0.6936v0.0757c0 0.8919-0.8628 1.4923-1.2476 1.737h2e-4zm4.2666-0.9734c-0.0991-0.07-0.0816-0.3031 0.2506-1.0317 0.1283-0.2856 0.4313-0.7635 0.9502-1.224 0.0582 0.1865 0.0991 0.3672 0.0932 0.5362-0.0059 1.125-0.8101 1.5447-1.294 1.7195z" fill="#CD6799"/></svg>
