<?xml version="1.0" encoding="UTF-8"?>
<svg width="32" height="32" version="1.1" viewBox="0 0 32 32" xmlns="http://www.w3.org/2000/svg"><path d="m16.124 0.005249 14.124 7.9895v15.984l-14.124 7.9895-14.124-7.9895v-15.984z" fill="#dfffd6"/><path d="m27.727 23.425-11.134 6.3051v-4.9033l6.9395-3.8215zm0.7622-0.6875v-13.175l-4.072 2.3503v8.4745zm-24.011 0.6874 11.134 6.3001v-4.9035l-6.9395-3.8162-4.1946 2.4197zm-0.76215-0.6874v-13.175l4.072 2.3503v8.4745zm0.47448-14.028 11.422-6.4599v4.7437l-7.3179 4.0239-0.0587 0.032-4.0452-2.3399zm23.819 0-11.416-6.46v4.7437l7.3126 4.0292 0.0586 0.032 4.0453-2.3452z" fill="#8ed6fb"/><path d="m15.612 23.707-6.8436-3.7682v-7.4565l6.8436 3.9495zm0.9807 0 6.8436-3.7628v-7.4619l-6.8436 3.9495zm-7.3659-12.088 6.8755-3.7789 6.8701 3.7789-6.8701 3.9654z" fill="#1c78c0"/></svg>
