<?xml version="1.0" encoding="UTF-8"?>
<svg width="24" height="24" fill="none" version="1.1" viewBox="0 0 24 24" xmlns="http://www.w3.org/2000/svg"><g transform="matrix(.75 0 0 .75 .25012 0)" clip-path="url(#a)"><path d="m10.333 32c2.944 0 5.3334-2.3893 5.3334-5.3333v-5.3333h-5.3334c-2.944 0-5.3333 2.3893-5.3333 5.3333s2.3893 5.3333 5.3333 5.3333z" fill="#0acf83"/><path d="m5 16c0-2.944 2.3893-5.3334 5.3333-5.3334h5.3334v10.667h-5.3334c-2.944 0-5.3333-2.3893-5.3333-5.3333z" fill="#a259ff"/><path d="m5 5.3333c0-2.944 2.3893-5.3333 5.3333-5.3333h5.3334v10.667h-5.3334c-2.944 0-5.3333-2.3894-5.3333-5.3334z" fill="#f24e1e"/><path d="m15.667 0h5.3333c2.944 0 5.3334 2.3893 5.3334 5.3333s-2.3894 5.3334-5.3334 5.3334h-5.3333v-10.667z" fill="#ff7262"/><path d="m26.333 16c0 2.944-2.3894 5.3333-5.3334 5.3333s-5.3333-2.3893-5.3333-5.3333 2.3893-5.3334 5.3333-5.3334 5.3334 2.3894 5.3334 5.3334z" fill="#1abcfe"/></g><defs><clipPath id="a"><rect transform="translate(5)" width="21.333" height="32" fill="#fff"/></clipPath></defs></svg>
